# xmcd
#
# Track frame offsets:
#	150
#	11927
#	24420
#	36700
#	47910
#	59450
#	72105
#	89447
#	102577
#	122317
#	132385
#	146607
#
# Disc length: 2212 seconds
#
# Revision: 1
# Processed by: cddbd v1.5.1PL2 Copyright (c) Steve Scherf et al.
# Submitted via: audiograbber 1.83.01
#
DISCID=b108a20c
DTITLE=Ávalon - Nu e Cru
DYEAR=2005
DGENRE=Pop Rock
TTITLE0=Ciranda Civil
TTITLE1=De Saco Cheio
TTITLE2=A Terra do Nunca
TTITLE3=Deixa Pra Lá
TTITLE4=Segunda Feira
TTITLE5=Agora eu Sei
TTITLE6=Liberdade
TTITLE7=A Estrada das Flores
TTITLE8=Longe do Teu Epinho
TTITLE9=Rock Brasilerío
TTITLE10=Rock é Rock
TTITLE11=Sem Stress
EXTD=
EXTT0=
EXTT1=
EXTT2=
EXTT3=
EXTT4=
EXTT5=
EXTT6=
EXTT7=
EXTT8=
EXTT9=
EXTT10=
EXTT11=
PLAYORDER=
